# xmcd
#
# Track frame offsets: 
#        150
#        19419
#        40436
#        59771
#        79131
#        102579
#        121034
#        145097
#        162090
#        180704
#        200755
#        217422
#
# Disc length: 3161 seconds
#
# Revision: 0
# Processed by: cddbd v1.5.2PL0 Copyright (c) Steve Scherf et al.
# Submitted via: ExactAudioCopy v1.2
#
DISCID=b90c570c
DTITLE=Playing for Change - Listen to the Music
DYEAR=2018
DGENRE=Blues
TTITLE0=Listen to the Music (feat. The Doobie Brothers and Ellis Hall)
TTITLE1=Everlasting Arms (feat. Luke Winslow-King, Vasti Jackson and Dr.
TTITLE1=John)
TTITLE2=All Along the Watchtower (feat. John Cruz, Warren Haynes, Cyri
TTITLE2=l Neville and Ivan Neville)
TTITLE3=Natural Mystic - Just a Little Bit (feat. Paula Fuga, Jack Joh
TTITLE3=nson and Afro Fiesta)
TTITLE4=Skin Deep (feat. Buddy Guy)
TTITLE5=Chan Chan (feat. Teté Garcia Catulra, Pancho Amat and Mamadou Di
TTITLE5=abate)
TTITLE6=Africa Mokili Mobimba (feat. Preservation Hall Jazz Band and TPO
TTITLE6=K Jazz Band)
TTITLE7=Ahoulaguine Akaline (feat. Bombino and Lee Oskar)
TTITLE8=Rasta Children (feat. Paulo Da Luz and Blue King Brown)
TTITLE9=Congo to the Mississippi (feat. Afro Fiesta, Grandpa Elliott, 
TTITLE9=Vasti Jackson and Leon Mobley)
TTITLE10=Bring It on Home to Me (feat. Roger Ridley, Alice Tan Ridley 
TTITLE10=& Grandpa Elliott)
TTITLE11=Ripple (feat. Jimmy Buffett, David Crosby and David Hidalgo)
EXTD=
EXTT0=
EXTT1=
EXTT2=
EXTT3=
EXTT4=
EXTT5=
EXTT6=
EXTT7=
EXTT8=
EXTT9=
EXTT10=
EXTT11=
PLAYORDER=
